<svg width="4096" height="4096" viewBox="0 0 4096 4096" fill="none" xmlns="http://www.w3.org/2000/svg">
<path d="M2048 423C2945.46 423 3673 1150.54 3673 2048C3673 2923.69 2980.33 3637.6 2113 3671.72V3421.49C2842.21 3387.55 3423 2785.6 3423 2048C3423 1288.61 2807.39 673 2048 673C1288.61 673 673 1288.61 673 2048C673 2785.6 1253.79 3387.55 1983 3421.49V3671.72C1115.67 3637.6 423 2923.69 423 2048C423 1150.54 1150.54 423 2048 423Z" fill="white"/>
<path fill-rule="evenodd" clip-rule="evenodd" d="M1128.76 1127.76C1636.44 620.08 2459.56 620.08 2967.24 1127.76C3459.52 1620.04 3474.45 2408.91 3012.03 2919.19L2870.4 2777.56C3254.84 2345.59 3239.98 1683.34 2825.82 1269.18C2396.24 839.606 1699.76 839.606 1270.18 1269.18C840.606 1698.76 840.606 2395.24 1270.18 2824.82C1684.32 3238.95 2346.51 3253.84 2778.48 2869.48L2920.1 3011.11C2409.83 3473.45 1621.02 3458.5 1128.76 2966.24C621.079 2458.56 621.079 1635.44 1128.76 1127.76Z" fill="white"/>
<path fill-rule="evenodd" clip-rule="evenodd" d="M2049 1007C2601.55 1007 3053.45 1437.9 3087 1982H2926.64C2893.37 1526.34 2513.15 1167 2049 1167C1562.99 1167 1169 1560.99 1169 2047C1169 2533.01 1562.99 2927 2049 2927C2513.15 2927 2893.37 2567.66 2926.64 2112H3087C3053.45 2656.1 2601.55 3087 2049 3087C1474.62 3087 1009 2621.38 1009 2047C1009 1472.62 1474.62 1007 2049 1007Z" fill="white"/>
<path d="M1459.69 1458.69C1769.14 1149.24 2261.7 1134.51 2588.58 1414.49L2497.74 1505.33C2221.16 1275.14 1809.63 1289.76 1550.2 1549.2C1275.27 1824.13 1275.27 2269.87 1550.2 2544.8C1825.13 2819.73 2270.87 2819.73 2545.8 2544.8C2805.24 2285.37 2819.86 1873.83 2589.67 1597.25L2680.5 1506.42C2960.49 1833.3 2945.76 2325.86 2636.31 2635.31C2311.4 2960.23 1784.6 2960.23 1459.69 2635.31C1134.77 2310.4 1134.77 1783.6 1459.69 1458.69Z" fill="white"/>
<path d="M1983 1485.97C1702.38 1518.01 1484.4 1756.3 1484.4 2045.5C1484.4 2356.55 1736.55 2608.7 2047.6 2608.7C2358.65 2608.7 2610.8 2356.55 2610.8 2045.5C2610.8 1756.58 2393.24 1518.47 2113 1486.06V1383.08C2449.91 1415.94 2713.2 1699.97 2713.2 2045.5C2713.2 2413.1 2415.2 2711.1 2047.6 2711.1C1680 2711.1 1382 2413.1 1382 2045.5C1382 1699.7 1645.71 1415.48 1983 1383V1485.97Z" fill="white"/>
<path d="M1720.32 1628.07C1929.27 1464.16 2232.5 1478.46 2425 1670.96C2632.95 1878.91 2632.95 2216.05 2425 2424C2217.05 2631.95 1879.91 2631.95 1671.96 2424C1479.69 2231.73 1465.2 1929 1628.48 1720.08L1686.93 1778.53C1555.34 1954.96 1569.66 2205.85 1729.89 2366.07C1905.84 2542.03 2191.12 2542.03 2367.07 2366.07C2543.03 2190.12 2543.03 1904.84 2367.07 1728.89C2206.61 1568.42 1955.23 1554.3 1778.75 1686.5L1720.32 1628.07Z" fill="white"/>
<path d="M2045.09 1621C2280.35 1621 2471.07 1811.72 2471.07 2046.98C2471.07 2282.25 2280.35 2472.97 2045.09 2472.97C1832 2472.97 1655.46 2316.51 1624.07 2112.2H1690.53C1721.22 2280.14 1868.29 2407.43 2045.09 2407.43C2244.16 2407.43 2405.54 2246.05 2405.54 2046.98C2405.54 1847.91 2244.16 1686.54 2045.09 1686.54C1868.14 1686.54 1720.97 1814.05 1690.45 1982.2H1624C1655.21 1777.68 1831.85 1621 2045.09 1621Z" fill="white"/>
<circle cx="2048" cy="2048" r="250" fill="white"/>
</svg>
